<svg width="1284" height="1333" viewBox="0 0 1284 1333" fill="none" xmlns="http://www.w3.org/2000/svg">
<g opacity="0.1" filter="url(#filter0_d)">
<circle cx="642" cy="642.367" r="578.5" fill="url(#paint0_linear)"/>
</g>
<g opacity="0.03" filter="url(#filter1_f)">
<rect x="348.976" y="398.243" width="117.21" height="506.76" rx="11.9667" fill="#373737"/>
</g>
<g opacity="0.03" filter="url(#filter2_f)">
<rect x="872.972" y="312.059" width="230.972" height="848.047" rx="11.9667" fill="url(#paint1_linear)"/>
</g>
<g opacity="0.05" filter="url(#filter3_f)">
<rect x="690.263" y="312.059" width="113.762" height="848.047" rx="11.9667" fill="url(#paint2_linear)"/>
</g>
<g opacity="0.05" filter="url(#filter4_f)">
<rect x="514.448" y="398.243" width="151.683" height="761.863" rx="11.9667" fill="url(#paint3_linear)"/>
</g>
<g opacity="0.03" filter="url(#filter5_f)">
<rect x="180.056" y="729.188" width="155.131" height="568.812" rx="11.9667" fill="url(#paint4_linear)"/>
</g>
<path d="M843.452 263.761L710.509 261.205H976.393L843.452 263.761Z" fill="#D8D8D8"/>
<path d="M789.647 234.204L833.109 234.355V293.006L789.647 290.298V234.204Z" fill="url(#paint5_linear)"/>
<path d="M902.137 234.204L833.109 234.355V293.006L902.137 290.298V234.204Z" fill="url(#paint6_linear)"/>
<path d="M902.137 234.204L833.109 234.355V293.006L902.137 290.298V234.204Z" fill="url(#paint7_linear)"/>
<path d="M710.509 261.205L843.452 263.761V1258.27L710.509 1253.16V261.205Z" fill="url(#paint8_linear)"/>
<path d="M976.394 261.205L843.452 263.761V1258.27L976.394 1253.16V261.205Z" fill="url(#paint9_linear)"/>
<path d="M976.394 261.205L843.452 263.761V1258.27L976.394 1253.16V261.205Z" fill="url(#paint10_linear)"/>
<rect x="738.632" y="281.658" width="5.11318" height="922.928" rx="2" fill="url(#paint11_linear)"/>
<rect x="764.197" y="281.658" width="5.11318" height="925.485" rx="2" fill="url(#paint12_linear)"/>
<rect x="789.763" y="286.771" width="5.11318" height="922.928" rx="2" fill="url(#paint13_linear)"/>
<rect x="817.886" y="289.327" width="5.11318" height="922.928" rx="2" fill="url(#paint14_linear)"/>
<rect x="869.018" y="289.327" width="5.11318" height="928.042" rx="2" fill="url(#paint15_linear)"/>
<rect x="894.583" y="286.771" width="5.11318" height="928.042" rx="2" fill="url(#paint16_linear)"/>
<rect x="920.149" y="284.214" width="5.11318" height="928.042" rx="2" fill="url(#paint17_linear)"/>
<rect x="948.272" y="281.658" width="5.11318" height="928.042" rx="2" fill="url(#paint18_linear)"/>
<path d="M710.947 156.928L841.946 159.499V1263.53L710.947 1258.39V156.928Z" fill="url(#paint19_linear)"/>
<path d="M976.396 156.928L841.949 159.499V1263.53L976.396 1258.38V156.928Z" fill="url(#paint20_linear)"/>
<mask id="mask0" mask-type="alpha" maskUnits="userSpaceOnUse" x="673" y="777" width="169" height="480">
<path d="M673.026 777.451L841.946 814.563V1256.63H705.658L673.026 777.451Z" fill="url(#paint21_linear)"/>
</mask>
<g mask="url(#mask0)">
<g opacity="0.1" filter="url(#filter6_f)">
<path d="M673.026 777.451L841.946 814.563V1256.63H705.658L673.026 777.451Z" fill="url(#paint22_linear)"/>
</g>
</g>
<rect x="496.756" y="184.507" width="11.322" height="192.475" rx="1" fill="url(#paint23_linear)"/>
<path d="M411.841 362.829L482.604 364.453V399.626L411.841 398.002V362.829Z" fill="url(#paint24_linear)"/>
<path d="M411.843 362.829L482.605 364.453L590.29 362.829H411.843Z" fill="white"/>
<path d="M590.163 362.829L482.604 364.453V399.626L590.163 398.002V362.829Z" fill="url(#paint25_linear)"/>
<path d="M590.163 362.829L482.604 364.453V399.626L590.163 398.002V362.829Z" fill="url(#paint26_linear)"/>
<path d="M618.468 396.029C618.468 394.9 617.534 393.994 616.405 394.03L490.202 398.012C489.122 398.046 488.265 398.93 488.265 400.011V1192.93C488.265 1194.06 489.199 1194.97 490.328 1194.93L616.531 1190.95C617.611 1190.92 618.468 1190.03 618.468 1188.95V396.029Z" fill="url(#paint27_linear)"/>
<path d="M380.002 396.875C380.002 395.74 380.945 394.832 382.079 394.876L484.947 398.875C486.021 398.917 486.869 399.799 486.869 400.874V1202.84C486.869 1203.98 485.926 1204.89 484.792 1204.84L381.924 1200.84C380.85 1200.8 380.002 1199.92 380.002 1198.84V396.875Z" fill="url(#paint28_linear)"/>
<path d="M380.002 396.875C380.002 395.74 380.945 394.832 382.079 394.876L484.947 398.875C486.021 398.917 486.869 399.799 486.869 400.874V1202.84C486.869 1203.98 485.926 1204.89 484.792 1204.84L381.924 1200.84C380.85 1200.8 380.002 1199.92 380.002 1198.84V396.875Z" fill="url(#paint29_linear)"/>
<path d="M380.705 393.965L417.502 395.271V1197.83L380.705 1196.52V393.965Z" fill="url(#paint30_linear)"/>
<path d="M448.637 396.795L488.264 398.102V1200.66L448.637 1199.35V396.795Z" fill="url(#paint31_linear)"/>
<mask id="mask1" mask-type="alpha" maskUnits="userSpaceOnUse" x="488" y="393" width="131" height="802">
<path d="M618.468 393.965L488.265 398.073V1195L618.468 1190.89V393.965Z" fill="url(#paint32_linear)"/>
</mask>
<g mask="url(#mask1)">
<path d="M522.231 396.811L533.553 393.965V1427.09L522.231 1429.93V396.811Z" fill="url(#paint33_linear)"/>
<path d="M522.231 396.811L533.553 393.965V1427.09L522.231 1429.93V396.811Z" fill="url(#paint34_linear)"/>
<path d="M488.264 396.818L505.247 393.965V1429.91L488.264 1432.76V396.818Z" fill="url(#paint35_linear)"/>
<path d="M488.264 396.818L505.247 393.965V1429.91L488.264 1432.76V396.818Z" fill="url(#paint36_linear)"/>
<path d="M547.705 396.803L559.027 393.965V1424.26L547.705 1427.1V396.803Z" fill="url(#paint37_linear)"/>
<path d="M547.705 396.803L559.027 393.965V1424.26L547.705 1427.1V396.803Z" fill="url(#paint38_linear)"/>
<path d="M573.178 393.973L584.5 391.134V1421.43L573.178 1424.27V393.973Z" fill="url(#paint39_linear)"/>
<path d="M573.178 393.973L584.5 391.134V1421.43L573.178 1424.27V393.973Z" fill="url(#paint40_linear)"/>
<path d="M601.486 393.965L618.469 391.134V1418.61L601.486 1421.44V393.965Z" fill="url(#paint41_linear)"/>
<path d="M601.486 393.965L618.469 391.134V1418.61L601.486 1421.44V393.965Z" fill="url(#paint42_linear)"/>
</g>
<path d="M262.662 760.215L599.603 767.13V799.181L262.662 797.461V760.215Z" fill="url(#paint43_linear)"/>
<path d="M262.664 760.214L599.605 767.13L731.631 760.214H262.664Z" fill="white"/>
<path d="M731.63 760.214L599.604 767.091V799.181L731.63 797.664V760.214Z" fill="url(#paint44_linear)"/>
<path d="M731.63 760.214L599.604 767.091V799.181L731.63 797.664V760.214Z" fill="url(#paint45_linear)"/>
<path d="M214.529 794.596L560.638 799.181V1291.99L214.529 1280.76V794.596Z" fill="url(#paint46_linear)"/>
<path d="M764.638 791.149L560.639 799.181V1291.99L764.638 1287.4V791.149Z" fill="url(#paint47_linear)"/>
<path d="M764.638 791.149L560.639 799.181V1291.99L764.638 1287.4V791.149Z" fill="url(#paint48_linear)"/>
<path fill-rule="evenodd" clip-rule="evenodd" d="M216.542 828.993C215.433 828.985 214.529 829.883 214.529 830.993V831.577C214.529 832.676 215.416 833.569 216.516 833.577L558.625 835.842C559.735 835.85 560.638 834.952 560.638 833.842V833.258C560.638 832.159 559.751 831.266 558.652 831.258L216.542 828.993ZM216.542 851.913C215.433 851.905 214.529 852.803 214.529 853.913V854.497C214.529 855.596 215.416 856.49 216.516 856.497L558.625 858.762C559.735 858.77 560.638 857.872 560.638 856.763V856.178C560.638 855.079 559.751 854.186 558.652 854.178L216.542 851.913ZM216.542 881.711C215.433 881.703 214.529 882.601 214.529 883.711V884.295C214.529 885.394 215.416 886.287 216.516 886.295L558.625 888.56C559.735 888.568 560.638 887.67 560.638 886.56V885.976C560.638 884.877 559.751 883.983 558.652 883.976L216.542 881.711ZM214.529 906.632C214.529 905.522 215.433 904.625 216.542 904.632L558.652 906.898C559.751 906.905 560.638 907.798 560.638 908.897V909.482C560.638 910.591 559.735 911.489 558.625 911.482L216.516 909.216C215.416 909.209 214.529 908.315 214.529 907.216V906.632ZM216.542 927.553C215.433 927.545 214.529 928.443 214.529 929.552V930.137C214.529 931.236 215.416 932.129 216.516 932.137L558.625 934.402C559.735 934.41 560.638 933.512 560.638 932.402V931.818C560.638 930.719 559.751 929.825 558.652 929.818L216.542 927.553ZM214.529 970.811C214.529 969.701 215.433 968.803 216.542 968.811L558.652 971.076C559.751 971.084 560.638 971.977 560.638 973.076V973.66C560.638 974.77 559.735 975.668 558.625 975.66L216.516 973.395C215.416 973.387 214.529 972.494 214.529 971.395V970.811ZM216.542 994.024C215.433 994.016 214.529 994.914 214.529 996.024V996.608C214.529 997.707 215.416 998.601 216.516 998.608L558.625 1000.87C559.735 1000.88 560.638 999.983 560.638 998.874V998.289C560.638 997.19 559.751 996.297 558.652 996.289L216.542 994.024ZM214.529 1023.53C214.529 1022.42 215.433 1021.52 216.542 1021.53L558.652 1023.8C559.751 1023.8 560.638 1024.7 560.638 1025.8V1026.38C560.638 1027.49 559.735 1028.39 558.625 1028.38L216.516 1026.11C215.416 1026.11 214.529 1025.21 214.529 1024.11V1023.53ZM216.542 1044.45C215.433 1044.44 214.529 1045.34 214.529 1046.45V1047.03C214.529 1048.13 215.416 1049.03 216.516 1049.03L558.625 1051.3C559.735 1051.31 560.638 1050.41 560.638 1049.3V1048.72C560.638 1047.62 559.751 1046.72 558.652 1046.72L216.542 1044.45ZM214.529 1076.25C214.529 1075.14 215.433 1074.24 216.542 1074.25L558.652 1076.51C559.751 1076.52 560.638 1077.41 560.638 1078.51V1079.1C560.638 1080.21 559.735 1081.1 558.625 1081.1L216.516 1078.83C215.416 1078.82 214.529 1077.93 214.529 1076.83V1076.25ZM216.542 1104.05C215.433 1104.04 214.529 1104.94 214.529 1106.05V1106.63C214.529 1107.73 215.416 1108.62 216.516 1108.63L558.625 1110.9C559.735 1110.9 560.638 1110.01 560.638 1108.9V1108.31C560.638 1107.21 559.751 1106.32 558.652 1106.31L216.542 1104.05ZM214.529 1135.84C214.529 1134.73 215.433 1133.84 216.542 1133.84L558.652 1136.11C559.751 1136.12 560.638 1137.01 560.638 1138.11V1138.69C560.638 1139.8 559.735 1140.7 558.625 1140.69L216.516 1138.43C215.416 1138.42 214.529 1137.53 214.529 1136.43V1135.84ZM216.542 1163.64C215.433 1163.63 214.529 1164.53 214.529 1165.64V1166.22C214.529 1167.32 215.416 1168.22 216.516 1168.22L558.625 1170.49C559.735 1170.5 560.638 1169.6 560.638 1168.49V1167.91C560.638 1166.81 559.751 1165.91 558.652 1165.91L216.542 1163.64ZM214.529 1195.44C214.529 1194.33 215.433 1193.43 216.542 1193.44L558.652 1195.7C559.751 1195.71 560.638 1196.6 560.638 1197.7V1198.29C560.638 1199.4 559.735 1200.29 558.625 1200.29L216.516 1198.02C215.416 1198.01 214.529 1197.12 214.529 1196.02V1195.44ZM216.542 1218.65C215.433 1218.64 214.529 1219.54 214.529 1220.65V1221.24C214.529 1222.33 215.416 1223.23 216.516 1223.24L558.625 1225.5C559.735 1225.51 560.638 1224.61 560.638 1223.5V1222.92C560.638 1221.82 559.751 1220.92 558.652 1220.92L216.542 1218.65ZM214.529 1241.28C214.529 1240.17 215.433 1239.27 216.542 1239.28L558.652 1241.55C559.751 1241.55 560.638 1242.45 560.638 1243.55V1244.13C560.638 1245.24 559.735 1246.14 558.625 1246.13L216.516 1243.86C215.416 1243.86 214.529 1242.96 214.529 1241.86V1241.28Z" fill="url(#paint49_linear)"/>
<path fill-rule="evenodd" clip-rule="evenodd" d="M562.615 831.249C561.519 831.262 560.637 832.153 560.637 833.249V833.833C560.637 834.946 561.546 835.845 562.66 835.833L762.658 833.586C763.754 833.573 764.635 832.682 764.635 831.586V831.002C764.635 829.889 763.726 828.99 762.613 829.002L562.615 831.249ZM562.615 854.169C561.519 854.182 560.637 855.073 560.637 856.169V856.753C560.637 857.867 561.546 858.766 562.66 858.753L762.658 856.506C763.754 856.494 764.635 855.602 764.635 854.506V853.922C764.635 852.809 763.726 851.91 762.613 851.922L562.615 854.169ZM562.615 883.967C561.519 883.98 560.637 884.872 560.637 885.967V886.551C560.637 887.665 561.546 888.564 562.66 888.551L762.658 886.304C763.754 886.292 764.635 885.4 764.635 884.304V883.72C764.635 882.607 763.726 881.708 762.613 881.72L562.615 883.967ZM560.637 908.888C560.637 907.792 561.519 906.9 562.615 906.888L762.613 904.641C763.726 904.628 764.635 905.527 764.635 906.641V907.225C764.635 908.32 763.754 909.212 762.658 909.224L562.66 911.472C561.546 911.484 560.637 910.585 560.637 909.472V908.888ZM562.615 929.809C561.519 929.821 560.637 930.713 560.637 931.809V932.393C560.637 933.506 561.546 934.405 562.66 934.393L762.658 932.146C763.754 932.133 764.635 931.241 764.635 930.146V929.562C764.635 928.448 763.726 927.549 762.613 927.562L562.615 929.809ZM560.637 973.068C560.637 971.972 561.519 971.08 562.615 971.068L762.613 968.821C763.726 968.808 764.635 969.707 764.635 970.82V971.404C764.635 972.5 763.754 973.392 762.658 973.404L562.66 975.651C561.546 975.664 560.637 974.765 560.637 973.652V973.068ZM562.615 996.281C561.519 996.293 560.637 997.185 560.637 998.281V998.864C560.637 999.978 561.546 1000.88 562.66 1000.86L762.658 998.617C763.754 998.605 764.635 997.713 764.635 996.617V996.033C764.635 994.92 763.726 994.021 762.613 994.033L562.615 996.281ZM560.637 1025.79C560.637 1024.69 561.519 1023.8 562.615 1023.79L762.613 1021.54C763.726 1021.53 764.635 1022.42 764.635 1023.54V1024.12C764.635 1025.22 763.754 1026.11 762.658 1026.12L562.66 1028.37C561.546 1028.38 560.637 1027.48 560.637 1026.37V1025.79ZM562.615 1046.71C561.519 1046.72 560.637 1047.61 560.637 1048.71V1049.29C560.637 1050.4 561.546 1051.3 562.66 1051.29L762.658 1049.04C763.754 1049.03 764.635 1048.14 764.635 1047.04V1046.46C764.635 1045.35 763.726 1044.45 762.613 1044.46L562.615 1046.71ZM560.637 1078.5C560.637 1077.41 561.519 1076.52 562.615 1076.5L762.613 1074.26C763.726 1074.24 764.635 1075.14 764.635 1076.26V1076.84C764.635 1077.94 763.754 1078.83 762.658 1078.84L562.66 1081.09C561.546 1081.1 560.637 1080.2 560.637 1079.09V1078.5ZM562.615 1106.3C561.519 1106.31 560.637 1107.21 560.637 1108.3V1108.89C560.637 1110 561.546 1110.9 562.66 1110.89L762.658 1108.64C763.754 1108.63 764.635 1107.73 764.635 1106.64V1106.05C764.635 1104.94 763.726 1104.04 762.613 1104.05L562.615 1106.3ZM560.637 1138.1C560.637 1137 561.519 1136.11 562.615 1136.1L762.613 1133.85C763.726 1133.84 764.635 1134.74 764.635 1135.85V1136.44C764.635 1137.53 763.754 1138.42 762.658 1138.44L562.66 1140.68C561.546 1140.7 560.637 1139.8 560.637 1138.68V1138.1ZM562.615 1165.9C561.519 1165.91 560.637 1166.8 560.637 1167.9V1168.48C560.637 1169.59 561.546 1170.49 562.66 1170.48L762.658 1168.23C763.754 1168.22 764.635 1167.33 764.635 1166.23V1165.65C764.635 1164.54 763.726 1163.64 762.613 1163.65L562.615 1165.9ZM560.637 1197.69C560.637 1196.6 561.519 1195.71 562.615 1195.69L762.613 1193.45C763.726 1193.44 764.635 1194.33 764.635 1195.45V1196.03C764.635 1197.13 763.754 1198.02 762.658 1198.03L562.66 1200.28C561.546 1200.29 560.637 1199.39 560.637 1198.28V1197.69ZM562.615 1220.91C561.519 1220.92 560.637 1221.81 560.637 1222.91V1223.49C560.637 1224.6 561.546 1225.5 562.66 1225.49L762.658 1223.24C763.754 1223.23 764.635 1222.34 764.635 1221.24V1220.66C764.635 1219.55 763.726 1218.65 762.613 1218.66L562.615 1220.91ZM560.637 1243.54C560.637 1242.44 561.519 1241.55 562.615 1241.54L762.613 1239.29C763.726 1239.28 764.635 1240.18 764.635 1241.29V1241.87C764.635 1242.97 763.754 1243.86 762.658 1243.87L562.66 1246.12C561.546 1246.13 560.637 1245.23 560.637 1244.12V1243.54Z" fill="url(#paint50_linear)"/>
<defs>
<filter id="filter0_d" x="0.5" y="0.866638" width="1283" height="1283" filterUnits="userSpaceOnUse" color-interpolation-filters="sRGB">
<feFlood flood-opacity="0" result="BackgroundImageFix"/>
<feColorMatrix in="SourceAlpha" type="matrix" values="0 0 0 0 0 0 0 0 0 0 0 0 0 0 0 0 0 0 127 0"/>
<feOffset/>
<feGaussianBlur stdDeviation="31.5"/>
<feColorMatrix type="matrix" values="0 0 0 0 0 0 0 0 0 0 0 0 0 0 0 0 0 0 0.05 0"/>
<feBlend mode="normal" in2="BackgroundImageFix" result="effect1_dropShadow"/>
<feBlend mode="normal" in="SourceGraphic" in2="effect1_dropShadow" result="shape"/>
</filter>
<filter id="filter1_f" x="314.163" y="363.43" width="186.834" height="576.385" filterUnits="userSpaceOnUse" color-interpolation-filters="sRGB">
<feFlood flood-opacity="0" result="BackgroundImageFix"/>
<feBlend mode="normal" in="SourceGraphic" in2="BackgroundImageFix" result="shape"/>
<feGaussianBlur stdDeviation="17.4062" result="effect1_foregroundBlur"/>
</filter>
<filter id="filter2_f" x="838.16" y="277.247" width="300.597" height="917.672" filterUnits="userSpaceOnUse" color-interpolation-filters="sRGB">
<feFlood flood-opacity="0" result="BackgroundImageFix"/>
<feBlend mode="normal" in="SourceGraphic" in2="BackgroundImageFix" result="shape"/>
<feGaussianBlur stdDeviation="17.4062" result="effect1_foregroundBlur"/>
</filter>
<filter id="filter3_f" x="655.451" y="277.247" width="183.387" height="917.672" filterUnits="userSpaceOnUse" color-interpolation-filters="sRGB">
<feFlood flood-opacity="0" result="BackgroundImageFix"/>
<feBlend mode="normal" in="SourceGraphic" in2="BackgroundImageFix" result="shape"/>
<feGaussianBlur stdDeviation="17.4062" result="effect1_foregroundBlur"/>
</filter>
<filter id="filter4_f" x="479.636" y="363.43" width="221.308" height="831.488" filterUnits="userSpaceOnUse" color-interpolation-filters="sRGB">
<feFlood flood-opacity="0" result="BackgroundImageFix"/>
<feBlend mode="normal" in="SourceGraphic" in2="BackgroundImageFix" result="shape"/>
<feGaussianBlur stdDeviation="17.4062" result="effect1_foregroundBlur"/>
</filter>
<filter id="filter5_f" x="145.243" y="694.376" width="224.755" height="638.437" filterUnits="userSpaceOnUse" color-interpolation-filters="sRGB">
<feFlood flood-opacity="0" result="BackgroundImageFix"/>
<feBlend mode="normal" in="SourceGraphic" in2="BackgroundImageFix" result="shape"/>
<feGaussianBlur stdDeviation="17.4062" result="effect1_foregroundBlur"/>
</filter>
<filter id="filter6_f" x="669.026" y="773.451" width="176.92" height="487.181" filterUnits="userSpaceOnUse" color-interpolation-filters="sRGB">
<feFlood flood-opacity="0" result="BackgroundImageFix"/>
<feBlend mode="normal" in="SourceGraphic" in2="BackgroundImageFix" result="shape"/>
<feGaussianBlur stdDeviation="2" result="effect1_foregroundBlur"/>
</filter>
<linearGradient id="paint0_linear" x1="642" y1="63.8666" x2="642" y2="1220.87" gradientUnits="userSpaceOnUse">
<stop stop-color="#9BA3BE"/>
<stop offset="1" stop-color="white" stop-opacity="0"/>
</linearGradient>
<linearGradient id="paint1_linear" x1="988.458" y1="312.059" x2="988.458" y2="1160.11" gradientUnits="userSpaceOnUse">
<stop offset="0.78086" stop-color="#373737"/>
<stop offset="1" stop-color="#373737" stop-opacity="0"/>
</linearGradient>
<linearGradient id="paint2_linear" x1="747.144" y1="312.059" x2="747.144" y2="1160.11" gradientUnits="userSpaceOnUse">
<stop offset="0.78086" stop-color="#373737"/>
<stop offset="1" stop-color="#373737" stop-opacity="0"/>
</linearGradient>
<linearGradient id="paint3_linear" x1="590.29" y1="398.243" x2="590.29" y2="1160.11" gradientUnits="userSpaceOnUse">
<stop offset="0.78086" stop-color="#373737"/>
<stop offset="1" stop-color="#373737" stop-opacity="0"/>
</linearGradient>
<linearGradient id="paint4_linear" x1="257.621" y1="729.188" x2="257.621" y2="1298" gradientUnits="userSpaceOnUse">
<stop offset="0.556217" stop-color="#4F4F4F"/>
<stop offset="1" stop-color="#8A8A8A" stop-opacity="0"/>
</linearGradient>
<linearGradient id="paint5_linear" x1="811.378" y1="231.648" x2="811.378" y2="293.006" gradientUnits="userSpaceOnUse">
<stop stop-color="white"/>
<stop offset="1" stop-color="#F8F8F8"/>
</linearGradient>
<linearGradient id="paint6_linear" x1="867.623" y1="231.648" x2="867.623" y2="293.006" gradientUnits="userSpaceOnUse">
<stop stop-color="white"/>
<stop offset="1" stop-color="#F2F2F2"/>
</linearGradient>
<linearGradient id="paint7_linear" x1="834.387" y1="267.44" x2="880.406" y2="268.718" gradientUnits="userSpaceOnUse">
<stop stop-color="#EBEBEB"/>
<stop offset="1" stop-color="white" stop-opacity="0"/>
</linearGradient>
<linearGradient id="paint8_linear" x1="776.981" y1="261.205" x2="776.981" y2="1258.27" gradientUnits="userSpaceOnUse">
<stop stop-color="#F7F7F7"/>
<stop offset="1" stop-color="#D9D9D9"/>
</linearGradient>
<linearGradient id="paint9_linear" x1="909.923" y1="261.205" x2="909.923" y2="1258.27" gradientUnits="userSpaceOnUse">
<stop stop-color="#E8E8E8"/>
<stop offset="1" stop-color="#E8E8E8"/>
<stop offset="1" stop-color="#E6E6E6"/>
</linearGradient>
<linearGradient id="paint10_linear" x1="843.452" y1="854.333" x2="976.394" y2="854.333" gradientUnits="userSpaceOnUse">
<stop stop-color="#DEDEDE"/>
<stop offset="1" stop-color="#F4F3F3" stop-opacity="0"/>
</linearGradient>
<linearGradient id="paint11_linear" x1="741.188" y1="281.658" x2="741.188" y2="1204.59" gradientUnits="userSpaceOnUse">
<stop stop-color="white"/>
<stop offset="1" stop-color="#CCCCCC"/>
</linearGradient>
<linearGradient id="paint12_linear" x1="766.754" y1="281.658" x2="766.754" y2="1207.14" gradientUnits="userSpaceOnUse">
<stop stop-color="white"/>
<stop offset="1" stop-color="#CCCCCC"/>
</linearGradient>
<linearGradient id="paint13_linear" x1="792.32" y1="286.771" x2="792.32" y2="1209.7" gradientUnits="userSpaceOnUse">
<stop stop-color="white"/>
<stop offset="1" stop-color="#CCCCCC"/>
</linearGradient>
<linearGradient id="paint14_linear" x1="820.442" y1="289.327" x2="820.442" y2="1212.26" gradientUnits="userSpaceOnUse">
<stop stop-color="white"/>
<stop offset="1" stop-color="#CCCCCC"/>
</linearGradient>
<linearGradient id="paint15_linear" x1="871.574" y1="289.327" x2="871.574" y2="1217.37" gradientUnits="userSpaceOnUse">
<stop stop-color="#D9D9D9"/>
<stop offset="1" stop-color="#DCDCDC"/>
</linearGradient>
<linearGradient id="paint16_linear" x1="897.14" y1="286.771" x2="897.14" y2="1214.81" gradientUnits="userSpaceOnUse">
<stop stop-color="#D9D9D9"/>
<stop offset="1" stop-color="#DCDCDC"/>
</linearGradient>
<linearGradient id="paint17_linear" x1="922.706" y1="284.214" x2="922.706" y2="1212.26" gradientUnits="userSpaceOnUse">
<stop stop-color="#D9D9D9"/>
<stop offset="1" stop-color="#DCDCDC"/>
</linearGradient>
<linearGradient id="paint18_linear" x1="950.828" y1="281.658" x2="950.828" y2="1209.7" gradientUnits="userSpaceOnUse">
<stop stop-color="#D9D9D9"/>
<stop offset="1" stop-color="#DCDCDC"/>
</linearGradient>
<linearGradient id="paint19_linear" x1="776.446" y1="987.15" x2="776.446" y2="1263.53" gradientUnits="userSpaceOnUse">
<stop stop-color="#F6F6F6" stop-opacity="0"/>
<stop offset="1" stop-color="#FAFAFA"/>
</linearGradient>
<linearGradient id="paint20_linear" x1="909.173" y1="987.15" x2="909.173" y2="1263.53" gradientUnits="userSpaceOnUse">
<stop stop-color="#F6F6F6" stop-opacity="0"/>
<stop offset="1" stop-color="#FAFAFA"/>
</linearGradient>
<linearGradient id="paint21_linear" x1="798.854" y1="841.227" x2="788.512" y2="1242.84" gradientUnits="userSpaceOnUse">
<stop offset="0.312949"/>
<stop offset="1" stop-opacity="0"/>
</linearGradient>
<linearGradient id="paint22_linear" x1="690.302" y1="953.187" x2="841.946" y2="953.187" gradientUnits="userSpaceOnUse">
<stop offset="0.750601"/>
<stop offset="1" stop-opacity="0"/>
</linearGradient>
<linearGradient id="paint23_linear" x1="493.763" y1="236.218" x2="493.763" y2="374.111" gradientUnits="userSpaceOnUse">
<stop stop-color="white"/>
<stop offset="1" stop-color="#D4D3D3"/>
</linearGradient>
<linearGradient id="paint24_linear" x1="447.223" y1="361.23" x2="447.223" y2="399.626" gradientUnits="userSpaceOnUse">
<stop stop-color="white"/>
<stop offset="1" stop-color="#EEEEEE"/>
</linearGradient>
<linearGradient id="paint25_linear" x1="536.384" y1="361.23" x2="536.384" y2="399.626" gradientUnits="userSpaceOnUse">
<stop stop-color="white"/>
<stop offset="1" stop-color="#E2E1E1"/>
</linearGradient>
<linearGradient id="paint26_linear" x1="484.596" y1="383.627" x2="556.016" y2="388.567" gradientUnits="userSpaceOnUse">
<stop stop-color="#EBEBEB"/>
<stop offset="1" stop-color="white" stop-opacity="0"/>
</linearGradient>
<linearGradient id="paint27_linear" x1="486.87" y1="527.518" x2="617.869" y2="525.795" gradientUnits="userSpaceOnUse">
<stop stop-color="#E6E6E6"/>
<stop offset="0.147361" stop-color="#DCDCDC"/>
<stop offset="0.253805" stop-color="#EBEBEB"/>
<stop offset="0.36485" stop-color="#DEDEDE"/>
<stop offset="0.46652" stop-color="#E8E7E7"/>
<stop offset="0.55963" stop-color="#DBDADA"/>
<stop offset="0.656699" stop-color="#ECECEC"/>
<stop offset="0.754001" stop-color="#D9D8D8"/>
<stop offset="0.873722" stop-color="#E5E5E5"/>
<stop offset="1" stop-color="#D4D3D3"/>
</linearGradient>
<linearGradient id="paint28_linear" x1="433.436" y1="394.795" x2="433.436" y2="1204.92" gradientUnits="userSpaceOnUse">
<stop stop-color="#F0F0F0"/>
<stop offset="1" stop-color="#C7C7C7"/>
</linearGradient>
<linearGradient id="paint29_linear" x1="416.199" y1="622.32" x2="435.159" y2="622.32" gradientUnits="userSpaceOnUse">
<stop stop-color="#D7D7D7"/>
<stop offset="1" stop-color="white" stop-opacity="0"/>
</linearGradient>
<linearGradient id="paint30_linear" x1="399.104" y1="393.965" x2="399.104" y2="1197.83" gradientUnits="userSpaceOnUse">
<stop stop-color="white"/>
<stop offset="1" stop-color="#E3E3E3"/>
</linearGradient>
<linearGradient id="paint31_linear" x1="468.451" y1="396.795" x2="468.451" y2="1200.66" gradientUnits="userSpaceOnUse">
<stop stop-color="white"/>
<stop offset="1" stop-color="#E3E3E3"/>
</linearGradient>
<linearGradient id="paint32_linear" x1="493.764" y1="570.61" x2="617.869" y2="563.716" gradientUnits="userSpaceOnUse">
<stop stop-color="#DBDBDB"/>
<stop offset="1" stop-color="#BEBEBE"/>
</linearGradient>
<linearGradient id="paint33_linear" x1="527.892" y1="393.965" x2="527.892" y2="1429.93" gradientUnits="userSpaceOnUse">
<stop stop-color="#F6F6F6"/>
<stop offset="1" stop-color="#E8E8E8"/>
</linearGradient>
<linearGradient id="paint34_linear" x1="533.553" y1="1010.23" x2="522.231" y2="1010.23" gradientUnits="userSpaceOnUse">
<stop stop-color="#F5F5F5"/>
<stop offset="1" stop-color="#EDEDED" stop-opacity="0"/>
</linearGradient>
<linearGradient id="paint35_linear" x1="496.756" y1="393.965" x2="496.756" y2="1432.76" gradientUnits="userSpaceOnUse">
<stop stop-color="#F6F6F6"/>
<stop offset="1" stop-color="#E8E8E8"/>
</linearGradient>
<linearGradient id="paint36_linear" x1="505.247" y1="1011.92" x2="488.264" y2="1011.92" gradientUnits="userSpaceOnUse">
<stop stop-color="white"/>
<stop offset="1" stop-color="#EDEDED" stop-opacity="0"/>
</linearGradient>
<linearGradient id="paint37_linear" x1="553.366" y1="393.965" x2="553.366" y2="1427.1" gradientUnits="userSpaceOnUse">
<stop stop-color="#F6F6F6"/>
<stop offset="1" stop-color="#E8E8E8"/>
</linearGradient>
<linearGradient id="paint38_linear" x1="559.027" y1="1008.55" x2="547.705" y2="1008.55" gradientUnits="userSpaceOnUse">
<stop stop-color="#F5F5F5"/>
<stop offset="1" stop-color="#EDEDED" stop-opacity="0"/>
</linearGradient>
<linearGradient id="paint39_linear" x1="578.839" y1="391.134" x2="578.839" y2="1424.27" gradientUnits="userSpaceOnUse">
<stop stop-color="#F6F6F6"/>
<stop offset="1" stop-color="#E8E8E8"/>
</linearGradient>
<linearGradient id="paint40_linear" x1="584.5" y1="1005.72" x2="573.178" y2="1005.72" gradientUnits="userSpaceOnUse">
<stop stop-color="#F5F5F5"/>
<stop offset="1" stop-color="#EDEDED" stop-opacity="0"/>
</linearGradient>
<linearGradient id="paint41_linear" x1="609.977" y1="391.134" x2="609.977" y2="1421.44" gradientUnits="userSpaceOnUse">
<stop stop-color="#F6F6F6"/>
<stop offset="1" stop-color="#E8E8E8"/>
</linearGradient>
<linearGradient id="paint42_linear" x1="618.469" y1="1004.03" x2="601.486" y2="1004.03" gradientUnits="userSpaceOnUse">
<stop stop-color="#F5F5F5"/>
<stop offset="1" stop-color="#EDEDED" stop-opacity="0"/>
</linearGradient>
<linearGradient id="paint43_linear" x1="431.133" y1="758.521" x2="431.133" y2="799.181" gradientUnits="userSpaceOnUse">
<stop offset="0.381958" stop-color="#FAFAFA"/>
<stop offset="1" stop-color="#E8E8E8"/>
</linearGradient>
<linearGradient id="paint44_linear" x1="659.199" y1="763.304" x2="653.468" y2="799.181" gradientUnits="userSpaceOnUse">
<stop stop-color="#FAFAFA"/>
<stop offset="1" stop-color="#D1D1D1"/>
</linearGradient>
<linearGradient id="paint45_linear" x1="601.811" y1="784.232" x2="680.801" y2="790.712" gradientUnits="userSpaceOnUse">
<stop stop-color="#E8E8E8"/>
<stop offset="1" stop-color="white" stop-opacity="0"/>
</linearGradient>
<linearGradient id="paint46_linear" x1="214.529" y1="960.16" x2="542.027" y2="1054.96" gradientUnits="userSpaceOnUse">
<stop stop-color="white"/>
<stop offset="1" stop-color="#EBEBEB"/>
</linearGradient>
<linearGradient id="paint47_linear" x1="662.638" y1="794.596" x2="662.638" y2="1291.99" gradientUnits="userSpaceOnUse">
<stop stop-color="#F4F4F4"/>
<stop offset="0.0001" stop-color="#F0F0F0"/>
<stop offset="1" stop-color="#E8E8E8"/>
<stop offset="1" stop-color="#CDCDCD"/>
</linearGradient>
<linearGradient id="paint48_linear" x1="560.639" y1="1090.48" x2="764.638" y2="1090.48" gradientUnits="userSpaceOnUse">
<stop offset="0.393092" stop-color="#E4E4E4"/>
<stop offset="1" stop-color="#D9D9D9"/>
</linearGradient>
<linearGradient id="paint49_linear" x1="214.529" y1="838.606" x2="558.516" y2="915.49" gradientUnits="userSpaceOnUse">
<stop stop-color="#FEFEFE"/>
<stop offset="1" stop-color="#DCDCDC"/>
</linearGradient>
<linearGradient id="paint50_linear" x1="576.5" y1="829.158" x2="772.999" y2="830.882" gradientUnits="userSpaceOnUse">
<stop stop-color="#DFDFDF"/>
<stop offset="1" stop-color="#CECECE"/>
</linearGradient>
</defs>
</svg>
